<?xml version="1.0" encoding="utf-8"?>
<!-- Generator: Adobe Illustrator 24.3.0, SVG Export Plug-In . SVG Version: 6.00 Build 0)  -->
<svg version="1.1" id="Calque_1" xmlns="http://www.w3.org/2000/svg" xmlns:xlink="http://www.w3.org/1999/xlink" x="0px" y="0px"
	 viewBox="0 0 482.14 528.86" style="enable-background:new 0 0 482.14 528.86;" xml:space="preserve">
<style type="text/css">
	.st0{display:none;fill:#FEFEFE;}
	.st1{fill:#262E33;}
	.st2{fill:#65C8FE;}
	.st3{fill:#2D1C19;}
	.st4{fill:#3A4C5A;}
	.st5{fill:#2F4351;}
	.st6{fill:#CF8A5B;}
	.st7{fill:#EFEFEF;}
	.st8{fill:#BB7D52;}
	.st9{fill:#E0E0E1;}
	.st10{fill:#FD4F6C;}
	.st11{fill:#402A1C;}
	.st12{fill:#FCFBFB;}
	.st13{fill:#AF754C;}
	.st14{fill:#573B26;}
	.st15{fill:#4E4E4E;}
</style>
<g>
	<path class="st0" d="M221.44,528.76c-78.81,0-157.62-0.03-236.42,0.09c-3.36,0.01-4.02-0.66-4.02-4.02
		c0.1-182.18,0.1-364.36,0-546.53c0-3.36,0.66-4.02,4.02-4.02c170.37,0.11,340.74,0.11,511.11,0c3.36,0,4.02,0.66,4.02,4.02
		c-0.1,182.18-0.1,364.36,0,546.53c0,3.36-0.65,4.03-4.02,4.02c-78.81-0.12-157.62-0.09-236.43-0.09c0.97-1.69,2.62-0.85,3.95-1
		c9.89-1.11,19.75-2.39,29.37-5.03c13.28-2.3,25.89-6.73,38.27-11.92c20.37-8.31,39.05-19.5,56.29-33.14
		c12.57-9.94,23.99-21,33.39-34.04c11.88-12.77,21.11-27.4,29.03-42.8c22.33-43.45,30.39-89.49,24.73-138.06
		c-3.46-29.74-12.72-57.65-26.41-84c-14.8-28.47-35.24-52.58-60.42-72.52c-12.94-10.25-26.53-19.58-41.73-26.3
		c-2.93-4.09-2.88-8.32-1.18-12.95c2.32-6.35-0.37-9.55-7.19-9.44c-3.9,0.06-7.64,1.7-11.74,1.15c0.16-1.38,0.26-2.63,0.46-3.87
		c1.16-7.25-1.59-9.86-8.74-7.78c-10.93,3.18-8.42,1.25-6.81-7.17c1.21-6.35-0.72-8.61-6.97-7.33c-0.95,0.2-1.88,0.51-2.83,0.73
		c-8.58,2.03-10.35,1.34-15.59-5.69c-1.85-2.48-4.12-5.83-7.37-4.51c-4.2,1.7-7.16,0.15-10.42-1.62c-2.14-1.16-4.43-0.76-6.71-0.8
		c-9.21-0.19-17.94-3.76-27.17-3.89c-0.3,0-0.63-0.21-0.88-0.41c-7-5.46-13.54-4.27-19.73,1.4c-3.27,2.99-5.84,2.97-8.8-0.79
		c-2.76-3.51-5.69-3.01-8.24,0.82c-0.88,1.33-1.3,2.96-2,4.42c-1.83,3.86-4.75,4.83-8.35,2.8c-9.18-5.14-9.8-4.88-12.22,5.33
		c-0.11,0.48-0.14,0.97-0.27,1.44c-1.12,4.08-3.41,5.24-7.23,3.63c-1.5-0.63-2.94-1.43-4.46-2.01c-5.33-2.02-8.09-0.2-8.29,5.59
		c-0.09,2.61,0.26,5.23,0.23,7.84c-0.06,7.22-3.46,10.69-10.57,10.93c-0.33,0.01-0.65,0-0.98,0.02c-2.41,0.13-4.61,0.91-5.71,3.13
		c-1,2.02,0.06,3.92,1.62,5.23c2.13,1.79,0.85,2.78-0.72,3.56c-1.58,0.79-3.36,1.2-4.97,1.94c-6.17,2.83-6.78,5.2-2.86,10.9
		c-0.79,0.57-1.53,1.23-2.37,1.7c-43.65,24.65-76.74,59.12-98.21,104.67C8.43,232.36,1.39,277.83,7.88,325.27
		c4.04,29.54,13.51,57.42,28.44,83.31c7.18,12.44,14.89,24.54,24.81,35.06c2.89,5.15,7.09,9.37,11.04,13.52
		c22.36,23.45,48.66,41.3,78.65,53.65c12.38,5.18,25,9.61,38.27,11.92c4.94,1.03,9.91,1.97,14.82,3.13
		C209.7,527.24,215.82,526.51,221.44,528.76z"/>
	<path class="st1" d="M221.44,522.76c-5.63-2.25-11.74-1.53-17.52-2.9c-4.91-1.17-9.88-2.1-14.82-3.13
		c-1.32-6.5-2.88-12.95-3.91-19.49c-2.84-18.04-5.67-36.07-7.2-54.32c-1.15-13.79-1.93-27.51-1.5-41.32
		c4.15,6.23,8.67,12.1,14.75,16.67c2.58,1.94,4.48,2.52,6.98-0.1c4.55-4.76,9.96-7.61,16.85-6.24c17.32,7.81,34.64,7.83,51.96,0
		c5.96-0.84,11.2,0.51,15.41,5.05c0.66,0.71,1.61,1.15,2.28,1.85c1.66,1.73,3.03,1.57,5,0.16c6.36-4.55,11.29-10.32,15.38-16.9
		c1.11,1.45,0.65,3.14,0.68,4.73c0.55,22.96-2.03,45.71-5.14,68.37c-1.91,13.93-4.22,27.85-7.63,41.54
		c-9.62,2.65-19.48,3.93-29.37,5.03c-1.33,0.15-2.99-0.69-3.95,1C246.95,522.76,234.19,522.76,221.44,522.76z"/>
	<path class="st2" d="M346.18,73.94c15.2,6.72,28.78,16.05,41.73,26.3c25.18,19.94,45.62,44.05,60.42,72.52
		c13.7,26.35,22.95,54.26,26.41,84c5.66,48.57-2.4,94.61-24.73,138.06c-7.92,15.4-17.14,30.03-29.03,42.8
		c-0.77-1.25-1.57-2.48-2.32-3.74c-23.73-39.6-58.32-63.04-104.02-69.95c-3.82-2.66-8.21-2.9-12.63-3
		c-4.1-4.73-8.33-9.31-13.71-12.65c-0.11-1.71-0.21-3.41-0.32-5.12c0-5.23,0-10.46,0.01-15.7c8.46-5.39,17.11-10.31,24.65-17.24
		c20.35-18.73,33.41-41.15,37.31-68.67c0.39-2.72,1.75-3.7,4.22-4.54c10.57-3.59,16.3-11.79,16.38-23
		c0.06-8.34,0.03-16.68,0.01-25.02c-0.04-14.12-5.64-21.77-19.03-26.02c2.43-13.47,1.75-26.79-1.36-40.11
		c-0.98-4.2-2.71-7.55-6.26-9.95c-0.28-1.24-0.56-2.49-0.83-3.73c4.55,1.9,6.65-0.14,7.26-4.53c0.22-1.59,0.5-3.19,0.53-4.79
		C351.02,90.94,349.53,82.27,346.18,73.94z"/>
	<path class="st2" d="M61.13,437.64c-9.92-10.52-17.64-22.62-24.81-35.06c-14.94-25.89-24.41-53.77-28.44-83.31
		c-6.48-47.44,0.56-92.92,21.02-136.34c21.47-45.55,54.56-80.02,98.21-104.67c0.84-0.48,1.58-1.13,2.37-1.7
		c3.97,3.9,0.39,4.68-2.4,5.75c-4,1.53-5.27,4.04-2.56,6.31c3.62,3.03,3.05,6.62,2.6,10.26c-2.69,21.68-1.88,43.29,1.01,64.88
		c-11.24,4.39-16.45,11.84-16.56,23.9c-0.08,8.5-0.04,16.99-0.01,25.49c0.04,12.27,5.34,19.92,16.93,24.01
		c2.4,0.85,3.3,2.12,3.67,4.48c5.61,36.17,25,62.99,55.75,82.1c2.05,1.28,4.55,1.81,6.21,3.73c0,5.23,0,10.46,0.01,15.7
		c-0.11,1.71-0.21,3.41-0.32,5.12c-5.51,3.2-9.56,7.99-13.74,12.64c-4.41,0.12-8.8,0.35-12.61,3
		c-24.99,3.53-47.66,12.66-67.61,28.24C83.86,404.68,70.86,419.78,61.13,437.64z"/>
	<path class="st3" d="M128.14,163.76c-2.9-21.59-3.7-43.2-1.01-64.88c0.45-3.64,1.01-7.23-2.6-10.26c-2.71-2.27-1.45-4.79,2.56-6.31
		c2.79-1.06,6.37-1.85,2.4-5.75c-3.91-5.7-3.31-8.07,2.87-10.9c1.61-0.74,3.39-1.14,4.97-1.94c1.56-0.78,2.84-1.76,0.72-3.56
		c-1.56-1.32-2.62-3.21-1.62-5.23c1.1-2.22,3.3-3,5.71-3.13c0.33-0.02,0.65-0.01,0.98-0.02c7.11-0.24,10.51-3.71,10.57-10.93
		c0.02-2.61-0.32-5.23-0.23-7.84c0.2-5.79,2.96-7.62,8.29-5.59c1.52,0.58,2.96,1.37,4.46,2.01c3.82,1.61,6.11,0.45,7.23-3.63
		c0.13-0.47,0.16-0.97,0.27-1.44c2.42-10.21,3.04-10.47,12.22-5.33c3.61,2.02,6.52,1.06,8.35-2.8c0.69-1.46,1.12-3.09,2-4.42
		c2.55-3.84,5.48-4.34,8.24-0.82c2.96,3.76,5.53,3.78,8.8,0.79c6.19-5.66,12.73-6.85,19.73-1.4c0.25,0.2,0.58,0.4,0.88,0.41
		c9.23,0.13,17.97,3.7,27.17,3.89c2.28,0.05,4.57-0.36,6.71,0.8c3.26,1.77,6.22,3.32,10.42,1.62c3.25-1.32,5.51,2.03,7.37,4.51
		c5.24,7.03,7.01,7.72,15.59,5.69c0.95-0.22,1.88-0.54,2.83-0.73c6.25-1.28,8.18,0.98,6.97,7.33c-1.61,8.42-4.12,10.35,6.81,7.17
		c7.15-2.08,9.9,0.53,8.74,7.78c-0.2,1.24-0.3,2.49-0.46,3.87c4.11,0.55,7.84-1.09,11.74-1.15c6.82-0.11,9.51,3.09,7.19,9.44
		c-1.69,4.63-1.75,8.87,1.18,12.95c3.34,8.32,4.84,16.99,4.67,25.95c-0.03,1.6-0.3,3.2-0.53,4.79c-0.61,4.39-2.71,6.43-7.26,4.53
		c-10.24-5.4-20.51-10.74-30.71-16.23c-10.42-5.61-21.33-10.19-33.06-11.6c-22.24-2.67-44.59-3.56-66.88-0.18
		c-24.11,3.66-46.81,11.32-67.66,24.21c-3.78,2.34-5.83,5.45-6.73,9.67c-2.4,11.24-3.17,22.6-3.04,34.06
		c0.06,4.91-0.57,9.76-1.73,14.53c-0.34,1.42-0.8,3.22-2.49,3.22C129.15,166.9,128.53,165.24,128.14,163.76z"/>
	<path class="st4" d="M61.13,437.64c9.73-17.87,22.73-32.96,38.74-45.46c19.95-15.58,42.62-24.71,67.61-28.24
		c-10.13,16.14-20.16,32.34-30.43,48.39c-6.08,9.49-6.25,9.38,1.79,17.5c0.35,0.35,0.66,0.74,1.05,1.03
		c2.53,1.9,2.26,4.03,0.65,6.37c-2.13,3.09-4.32,6.14-6.24,9.35c-1.6,2.69-3.46,5.25-1.93,8.91c3.89,9.32,7.62,18.71,11.09,28.19
		c2.56,7,6.29,13.6,7.38,21.12c-29.99-12.35-56.29-30.21-78.65-53.65C68.22,447.01,64.02,442.79,61.13,437.64z"/>
	<path class="st4" d="M314.64,363.95c45.7,6.91,80.29,30.35,104.02,69.95c0.75,1.26,1.55,2.49,2.32,3.74
		c-9.41,13.04-20.82,24.1-33.39,34.04c-17.25,13.63-35.92,24.82-56.29,33.14c2.46-10.27,6.59-19.9,11.22-29.34
		c11.54-1.25,23.08-2.51,35.65-3.87c-4.5-3.52-8.18-6.39-11.85-9.27c-3.69-2.9-7.38-2.96-11.16-0.16c-3.26,2.42-6.59,4.76-9.88,7.14
		c-0.54-3.99,1.49-7.53,3.17-10.58c3.09-5.61,1.18-9.75-1.83-14.23c-7.09-10.52-7.04-10.56,1.86-19.85
		c0.11-0.12,0.22-0.24,0.35-0.35c1.78-1.43,2.17-2.7,0.64-4.89c-3.44-4.94-6.45-10.18-9.64-15.29
		C331.43,390.73,323.03,377.34,314.64,363.95z"/>
	<path class="st5" d="M150.82,504.81c-1.08-7.52-4.82-14.12-7.38-21.12c-3.46-9.48-7.2-18.87-11.09-28.19
		c-1.53-3.66,0.33-6.22,1.93-8.91c1.92-3.22,4.11-6.27,6.24-9.35c1.62-2.34,1.88-4.47-0.65-6.37c-0.39-0.29-0.7-0.69-1.05-1.03
		c-8.05-8.12-7.87-8.01-1.79-17.5c10.27-16.05,20.3-32.25,30.43-48.39c3.81-2.65,8.2-2.89,12.61-3
		c-8.56,12.9-10.16,26.42-3.59,40.66c-0.44,13.81,0.34,27.53,1.5,41.32c1.53,18.25,4.36,36.28,7.2,54.32
		c1.03,6.54,2.59,13,3.91,19.49C175.82,514.43,163.21,510,150.82,504.81z"/>
	<path class="st5" d="M342.52,475.47c-4.63,9.44-8.76,19.07-11.22,29.34c-12.38,5.19-24.99,9.61-38.27,11.92
		c3.41-13.69,5.72-27.61,7.63-41.54c3.11-22.65,5.7-45.41,5.14-68.37c-0.04-1.59,0.43-3.28-0.68-4.73
		c7.44-14.36,5.32-27.99-3.1-41.15c4.42,0.11,8.82,0.34,12.63,3c8.39,13.39,16.79,26.78,25.17,40.17c3.2,5.11,6.2,10.35,9.64,15.29
		c1.53,2.19,1.14,3.46-0.64,4.89c-0.13,0.1-0.23,0.23-0.35,0.35c-8.9,9.29-8.95,9.32-1.86,19.85c3.02,4.48,4.93,8.62,1.83,14.23
		c-1.68,3.06-3.71,6.59-3.17,10.58C343.67,471.06,342.13,472.83,342.52,475.47z"/>
	<path class="st6" d="M193.82,348.3c0.11-1.71,0.21-3.41,0.32-5.12c5.52,1.81,11,3.75,16.56,5.42c19.55,5.86,39.19,6.24,58.84,0.47
		c6.19-1.82,12.3-3.91,18.45-5.88c0.11,1.71,0.21,3.41,0.32,5.12c-0.05,8.61-0.47,17.24-0.07,25.83
		c0.61,13.08-5.21,22.53-15.78,29.29c-3.4,2.17-5.16,4.69-5.41,8.53c-17.32,7.83-34.64,7.81-51.96,0c-0.23-3.85-2.04-6.33-5.43-8.5
		c-10.38-6.65-16.31-15.88-15.75-28.81C194.28,365.86,193.87,357.07,193.82,348.3z"/>
	<path class="st7" d="M193.82,348.3c0.05,8.78,0.45,17.57,0.08,26.32c-0.56,12.93,5.38,22.16,15.75,28.81
		c3.39,2.18,5.2,4.66,5.43,8.5c-6.89-1.37-12.3,1.48-16.85,6.24c-2.5,2.61-4.4,2.04-6.98,0.1c-6.09-4.57-10.6-10.44-14.75-16.67
		c-6.57-14.24-4.97-27.76,3.59-40.66C184.26,356.29,188.31,351.5,193.82,348.3z"/>
	<path class="st7" d="M267.04,411.94c0.24-3.84,2.01-6.36,5.41-8.53c10.57-6.76,16.39-16.21,15.78-29.29
		c-0.4-8.59,0.02-17.22,0.07-25.83c5.38,3.34,9.62,7.92,13.71,12.65c8.42,13.16,10.54,26.79,3.1,41.15
		c-4.09,6.58-9.02,12.35-15.38,16.9c-1.97,1.41-3.34,1.58-5-0.16c-0.67-0.7-1.62-1.14-2.28-1.85
		C278.24,412.45,273.01,411.1,267.04,411.94z"/>
	<path class="st6" d="M128.14,163.76c0.38,1.48,1,3.14,2.63,3.14c1.69,0,2.14-1.8,2.49-3.22c1.16-4.77,1.79-9.62,1.73-14.53
		c-0.13-11.46,0.64-22.82,3.04-34.06c0.9-4.22,2.95-7.34,6.73-9.67c20.85-12.89,43.55-20.55,67.66-24.21
		c22.28-3.38,44.63-2.49,66.88,0.18c11.73,1.41,22.64,5.98,33.06,11.6c10.19,5.49,20.47,10.83,30.71,16.23
		c0.28,1.24,0.56,2.48,0.83,3.73c-2.02-1.04-4.01-2.17-6.09-3.07c-1.26-0.55-2.74-1.53-3.99,0.03c-1.06,1.32-0.81,2.82,0.02,4.11
		c6,9.29,7.75,19.88,9.57,30.48c0.99,5.76,0.86,11.72,2.97,17.27c1.09,2.86,2.59,4.33,5.14,1.23c13.4,4.26,19,11.9,19.03,26.02
		c0.02,8.34,0.05,16.68-0.01,25.02c-0.08,11.21-5.81,19.4-16.38,23c-2.47,0.84-3.84,1.82-4.22,4.54
		c-3.9,27.51-16.96,49.94-37.31,68.67c-7.53,6.93-16.19,11.85-24.65,17.24c-1.54-0.13-2.82,0.63-4.19,1.17
		c-22.04,8.76-44.55,11.38-67.86,5.71c-7.45-1.81-14.41-5.02-21.81-6.88c-1.66-1.92-4.16-2.46-6.21-3.73
		c-30.75-19.11-50.14-45.94-55.75-82.1c-0.37-2.36-1.27-3.64-3.67-4.48c-11.6-4.09-16.89-11.75-16.93-24.01
		c-0.03-8.5-0.07-16.99,0.01-25.49C111.69,175.6,116.9,168.15,128.14,163.76z M272.45,259.87c-20.27,0-40.55,0-60.82,0
		c-4.24-0.02-8.49-0.08-12.73-0.07c-6.48,0.01-7.96,1.86-6.26,8c3.86,13.99,13.79,22.04,26.71,27.13c0.04,1.46,0.06,2.92,0.13,4.39
		c0.46,9.49,6.31,19.34,16.74,21.86c9.77,2.35,19.3-1.53,24.64-9.92c3.45-5.42,3.93-11.21,3.86-17.26
		c12.42-5.5,21.41-14.07,24.72-27.71c1.23-5.06,0.14-6.43-5.24-6.48C280.28,259.76,276.37,259.84,272.45,259.87z M291.85,166.58
		c-13.9-0.12-23.12,11.93-23.29,24.58c-0.18,13.12,10.57,23.6,23.73,23.51c13.09-0.09,23.7-10.78,23.27-23.95
		C315.15,177.95,305.89,166.28,291.85,166.58z M241.28,226.44c-6.69,0-13.38,0.09-20.06-0.04c-3.18-0.06-4.19,0.86-2.9,4.01
		c0.58,1.41,1.35,2.55,2.36,3.63c8.62,9.2,26.62,11.08,36.89,3.61c2.44-1.77,4.87-3.81,6.1-6.84c1.19-2.92,1.1-4.56-2.81-4.43
		C254.33,226.6,247.8,226.44,241.28,226.44z M195.85,143.15c-3.2-0.38-6.75,0.3-10.24,0.98c-11.21,2.2-21.63,6-29.21,15.24
		c-1.63,1.98-2.54,3.98-0.37,6c2.38,2.21,4.5,1.07,6.28-1.01c2.8-3.26,6.07-5.84,10-7.65c11.26-5.21,22.89-7.15,35.12-4.25
		c2.69,0.64,5.14,0.18,5.9-2.73c0.79-3.06-1.36-4.39-4.03-4.96C205,143.85,200.7,142.95,195.85,143.15z M327.32,162.89
		c0.08-1.37-0.24-2.19-2.61-4.51c-14.77-14.4-32.5-17.54-52.07-13.56c-2.5,0.51-4.5,1.83-3.91,4.64c0.62,2.94,2.82,3.51,5.69,2.96
		c4.79-0.92,9.58-1.72,14.56-1.18c12.15,1.31,23.43,4.34,31.81,14.1c1.02,1.19,2.51,1.57,4.03,0.9
		C326.26,165.61,327.18,164.52,327.32,162.89z M205.73,198.71c-0.35-0.71-0.72-1.61-1.2-2.43c-2.49-4.21-6.07-7.15-10.55-9.07
		c-11.15-4.76-24.98-0.52-30.38,9.33c-0.63,1.15-1.51,2.24-0.34,3.52c0.9,0.98,1.77,0.38,2.59-0.17c12.3-8.36,24.58-8.11,36.81,0.14
		C204.2,201.07,205.35,201.2,205.73,198.71z"/>
	<path class="st8" d="M194.13,327.48c7.4,1.86,14.36,5.06,21.81,6.88c23.3,5.68,45.82,3.05,67.86-5.71
		c1.37-0.54,2.64-1.31,4.19-1.17c0,5.23,0,10.46-0.01,15.7c-6.15,1.97-12.26,4.06-18.45,5.88c-19.64,5.77-39.28,5.39-58.84-0.47
		c-5.56-1.67-11.04-3.6-16.56-5.42C194.14,337.95,194.14,332.71,194.13,327.48z"/>
	<path class="st3" d="M351.52,162.99c-2.55,3.11-4.05,1.64-5.14-1.23c-2.11-5.56-1.98-11.52-2.97-17.27
		c-1.82-10.6-3.57-21.19-9.57-30.48c-0.83-1.29-1.08-2.79-0.02-4.11c1.25-1.56,2.73-0.58,3.99-0.03c2.08,0.91,4.06,2.04,6.09,3.07
		c3.55,2.4,5.28,5.75,6.26,9.95C353.27,136.2,353.95,149.53,351.52,162.99z"/>
	<path class="st9" d="M342.52,475.47c-0.39-2.64,1.15-4.42,2.76-6.17c3.3-2.38,6.62-4.72,9.88-7.14c3.79-2.81,7.47-2.74,11.16,0.16
		c3.67,2.89,7.35,5.75,11.85,9.27C365.6,472.97,354.06,474.22,342.52,475.47z"/>
	<path class="st10" d="M264.72,293.99c0.07,6.05-0.41,11.84-3.86,17.26c-5.34,8.4-14.87,12.28-24.64,9.92
		c-10.43-2.51-16.28-12.37-16.74-21.86c-0.07-1.46-0.09-2.92-0.13-4.39c0.04-3.91,0.35-7.83,0.07-11.72
		c-0.35-4.79,2.05-7.26,6.2-8.63c1.65-0.54,31.25-0.54,32.89,0.01c4.16,1.39,6.53,3.88,6.16,8.66
		C264.39,286.81,264.68,290.41,264.72,293.99z"/>
	<path class="st11" d="M264.72,293.99c-0.04-3.58-0.33-7.18-0.06-10.74c0.37-4.78-2-7.27-6.16-8.66
		c-1.64-0.55-31.24-0.55-32.89-0.01c-4.15,1.37-6.54,3.84-6.2,8.63c0.28,3.88-0.02,7.81-0.07,11.72
		c-12.92-5.09-22.84-13.15-26.71-27.13c-1.7-6.14-0.22-7.99,6.26-8c4.24-0.01,8.49,0.04,12.73,0.07c1.15,6.88,4.3,9.71,11.09,9.73
		c12.88,0.04,25.76,0.04,38.64,0c6.79-0.02,9.94-2.85,11.09-9.73c3.92-0.02,7.83-0.1,11.75-0.06c5.38,0.06,6.47,1.42,5.24,6.48
		C286.13,279.92,277.14,288.49,264.72,293.99z"/>
	<path class="st12" d="M291.85,166.58c14.03-0.3,23.3,11.37,23.71,24.14c0.43,13.18-10.18,23.86-23.27,23.95
		c-13.16,0.09-23.9-10.39-23.73-23.51C268.74,178.5,277.95,166.46,291.85,166.58z M292.11,179.35c-6.52-0.02-11.85,5.33-11.8,11.85
		c0.04,6.33,5.16,11.53,11.48,11.68c6.51,0.16,11.96-5.09,12.05-11.61C303.93,184.76,298.63,179.37,292.11,179.35z"/>
	<path class="st13" d="M241.28,226.44c6.53,0,13.06,0.16,19.57-0.06c3.92-0.13,4.01,1.51,2.81,4.43c-1.24,3.03-3.66,5.06-6.1,6.84
		c-10.28,7.47-28.27,5.59-36.89-3.61c-1.01-1.08-1.78-2.21-2.36-3.63c-1.29-3.15-0.28-4.07,2.9-4.01
		C227.9,226.53,234.59,226.44,241.28,226.44z"/>
	<path class="st12" d="M272.45,259.87c-1.15,6.88-4.3,9.71-11.09,9.73c-12.88,0.04-25.76,0.04-38.64,0
		c-6.79-0.02-9.94-2.85-11.09-9.73C231.91,259.87,252.18,259.87,272.45,259.87z"/>
	<path class="st14" d="M195.85,143.15c4.85-0.2,9.15,0.7,13.44,1.61c2.67,0.57,4.82,1.9,4.03,4.96c-0.75,2.91-3.2,3.37-5.9,2.73
		c-12.23-2.89-23.86-0.96-35.12,4.25c-3.93,1.82-7.2,4.4-10,7.65c-1.78,2.07-3.9,3.22-6.28,1.01c-2.17-2.02-1.25-4.01,0.37-6
		c7.58-9.24,18-13.04,29.21-15.24C189.1,143.45,192.65,142.77,195.85,143.15z"/>
	<path class="st14" d="M327.32,162.89c-0.14,1.63-1.06,2.72-2.5,3.35c-1.53,0.66-3.01,0.29-4.03-0.9
		c-8.38-9.76-19.66-12.8-31.81-14.1c-4.98-0.53-9.77,0.26-14.56,1.18c-2.87,0.55-5.07-0.03-5.69-2.96
		c-0.59-2.81,1.41-4.13,3.91-4.64c19.56-3.97,37.3-0.83,52.07,13.56C327.08,160.69,327.39,161.51,327.32,162.89z"/>
	<path class="st14" d="M205.73,198.71c-0.38,2.49-1.53,2.36-3.08,1.32c-12.24-8.25-24.51-8.5-36.81-0.14
		c-0.82,0.56-1.69,1.15-2.59,0.17c-1.17-1.28-0.29-2.37,0.34-3.52c5.4-9.85,19.23-14.09,30.38-9.33c4.48,1.91,8.06,4.86,10.55,9.07
		C205.01,197.1,205.38,198,205.73,198.71z"/>
	<path class="st15" d="M292.11,179.35c6.52,0.02,11.81,5.41,11.73,11.93c-0.09,6.52-5.53,11.76-12.05,11.61
		c-6.32-0.15-11.44-5.36-11.48-11.68C280.26,184.68,285.6,179.33,292.11,179.35z"/>
</g>
</svg>
